<svg width="470" height="115" viewBox="0 0 470 115" fill="none" xmlns="http://www.w3.org/2000/svg">
<path d="M158.652 101.246C158.652 58.5266 124.016 23.8906 81.296 23.8906C38.5762 23.8906 3.96094 58.5266 3.96094 101.246H158.652Z" fill="#F55539"/>
<path d="M92.2452 16.5699C93.671 10.5315 89.9319 4.48065 83.8936 3.05484C77.8552 1.62902 71.8044 5.36819 70.3785 11.4065C68.9527 17.4448 72.6919 23.4957 78.7302 24.9215C84.7685 26.3473 90.8194 22.6082 92.2452 16.5699Z" fill="#F55539"/>
<path d="M17.1797 86.0534C17.5735 79.2961 19.7292 72.684 22.714 66.5279C25.7402 60.3717 29.8236 54.7131 34.7568 49.8628C39.6693 44.9918 45.473 41.0535 51.712 38.1724C57.9718 35.3741 64.6461 33.5708 71.3826 33.1562C65.1436 35.7265 59.1947 38.4833 53.6604 41.8412C48.1469 45.2198 43.0271 49.1373 38.467 53.6145C33.9069 58.0917 29.8443 63.1078 26.3206 68.5592C24.5588 71.2745 22.8798 74.0728 21.3874 77.0161C19.8328 79.918 18.4648 82.9235 17.1797 86.0534Z" fill="white"/>
<path d="M176.77 55.1893C177.557 55.1893 180.003 55.7283 184.087 56.8268C185.019 48.743 187.673 39.9545 192.005 30.4819C193.539 27.0204 195.363 25.3 197.477 25.3C197.871 25.3 198.264 25.7145 198.617 26.5644C198.99 27.3935 199.176 28.4299 199.176 29.6735C199.176 31.1452 198.389 35.2285 196.855 41.8821C195.3 48.5357 194.285 54.3395 193.787 59.2727C197.042 60.0189 199.923 60.392 202.41 60.392C204.897 60.392 207.177 59.7287 209.25 58.4229C211.323 57.117 213.105 55.4173 214.577 53.3446C217.645 48.9503 219.158 43.6855 219.158 37.5086C219.117 26.1084 214.577 20.4082 205.54 20.4082C202.327 20.4497 196.668 21.8799 188.522 24.6989C186.947 25.2378 185.558 25.5073 184.377 25.5073C183.195 25.5073 182.594 25.1549 182.594 24.4709C182.594 23.5381 183.278 22.4188 184.667 21.1337C186.056 19.8486 187.818 18.6257 189.994 17.4234C195.321 14.563 200.503 13.1328 205.54 13.1328C212.442 13.1328 218.122 14.9776 222.557 18.6878C227.781 23.0821 230.372 29.7357 230.33 38.6693C230.33 42.4625 229.729 46.2142 228.548 49.9245C227.366 53.6348 225.563 56.9097 223.138 59.8116C220.713 62.6928 217.666 65.035 213.955 66.7968C210.245 68.5794 205.892 69.4707 200.855 69.4707C198.824 69.4707 196.275 69.0354 193.165 68.1441C192.813 69.0769 191.963 69.5536 190.574 69.5536C188.004 69.5536 186.263 69.1184 185.351 68.2685C184.439 67.4187 183.9 65.9885 183.755 64.0193C181.392 62.6928 179.423 61.304 177.868 59.8738C176.314 58.4436 175.547 57.1792 175.547 56.1014C175.588 55.4795 175.982 55.1893 176.77 55.1893Z" fill="#F55539"/>
<path d="M250.911 60.808C254.766 60.808 258.476 59.2741 262.083 56.2271C263.41 55.0871 264.508 54.0507 265.337 53.0765C266.166 52.1231 266.809 51.6256 267.265 51.6256C267.949 51.6256 268.301 52.3096 268.301 53.6984C268.301 55.0871 267.928 56.621 267.182 58.3206C266.436 60.0203 265.213 61.6785 263.472 63.316C259.223 67.3165 253.419 69.3063 245.998 69.3063C240.132 69.3063 236.132 67.1921 234.018 62.9429C233.272 61.4713 232.898 59.3363 232.898 56.5795C232.898 53.8227 233.437 50.9416 234.536 47.9568C235.614 44.972 237.065 42.4018 238.868 40.2253C240.671 38.0489 242.744 36.37 245.128 35.1471C247.491 33.9449 250.02 33.3438 252.714 33.3438C255.409 33.3438 257.481 34.007 258.932 35.3336C260.383 36.6602 261.109 38.4013 261.109 40.5155C261.109 42.6298 260.57 44.3709 259.513 45.7389C258.456 47.1069 257.088 48.2262 255.409 49.1383C253.73 50.0503 251.864 50.8587 249.812 51.5841C247.76 52.3096 245.75 53.0973 243.78 53.9885V55.8333C243.822 57.6159 244.568 58.8596 245.998 59.6058C247.47 60.3727 249.087 60.7665 250.911 60.808ZM249.646 39.9352C247.076 39.9352 245.314 42.92 244.319 48.8895C245.356 48.2055 246.33 47.5837 247.242 47.0448C248.154 46.5058 248.962 45.9877 249.646 45.4902C251.118 44.4123 251.885 43.1687 251.947 41.7799C251.947 40.557 251.18 39.9352 249.646 39.9352Z" fill="#F55539"/>
<path d="M281.112 69.0987C274.065 69.1401 269.256 66.5077 266.686 61.1807C265.795 59.3152 265.359 56.9522 265.359 54.1125C265.359 51.2728 265.608 48.2466 266.106 45.0545C267.101 38.6497 268.987 32.7215 271.806 27.2909C273.236 24.5341 274.832 22.1711 276.615 20.1813C280.511 15.8492 284.843 13.6935 289.632 13.735C291.746 13.735 293.425 14.3153 294.627 15.4761C295.829 16.6368 296.43 18.2951 296.43 20.4715C296.43 22.6479 295.788 24.8243 294.503 27.0214C293.217 29.2186 291.58 31.4779 289.59 33.8201C287.6 36.1623 285.382 38.6289 282.978 41.1784C280.553 43.7487 278.19 46.5262 275.868 49.5317V52.4958C275.868 55.2526 276.469 57.2839 277.651 58.569C278.832 59.8541 280.221 60.4967 281.796 60.4967C286.046 60.4967 289.797 58.4032 293.052 54.2162C294.378 52.4958 295.394 51.6252 296.078 51.6252C296.762 51.6252 297.114 52.4751 297.114 54.1333C297.114 55.8122 296.658 57.5326 295.746 59.2737C294.834 61.0149 293.632 62.6316 292.16 64.0826C290.689 65.5335 288.968 66.7357 287.061 67.6685C285.154 68.6012 283.123 69.0987 281.112 69.0987ZM285.092 29.3637C286.129 28.0785 286.937 26.9178 287.538 25.8814C288.139 24.845 288.429 23.7672 288.429 22.6686C288.429 21.5493 288.035 21.0104 287.248 21.0104C285.527 21.0104 283.6 22.793 281.506 26.3374C279.413 29.8818 277.837 34.5456 276.801 40.3286C278.48 37.7584 280.014 35.6234 281.423 33.8823C282.833 32.1412 284.056 30.6488 285.092 29.3637Z" fill="#F55539"/>
<path d="M301.595 69.0982C296.662 69.0982 294.195 64.4759 294.195 55.2521C294.195 50.2153 294.817 45.6552 296.04 41.5718C297.968 35.2499 300.144 32.0993 302.549 32.0993C303.979 32.0993 305.119 33.0527 305.948 34.9804C306.632 36.4521 306.964 37.9237 306.901 39.354C306.901 41.3231 306.3 44.8053 305.119 49.78C303.979 54.1121 303.419 56.8067 303.419 57.8431C303.419 58.8795 303.668 59.5842 304.207 59.9988C304.725 60.3926 305.347 60.5999 306.052 60.5999C306.756 60.5999 307.668 60.1231 308.746 59.1904C309.824 58.2576 310.923 57.2212 312 56.1227C313.078 55.0034 314.094 53.9877 315.006 53.055C315.918 52.1222 316.54 51.6455 316.892 51.6455C317.576 51.6455 317.929 52.4953 317.929 54.1535C317.929 57.6151 316.187 60.973 312.705 64.2479C309.264 67.5229 305.554 69.1397 301.595 69.0982ZM304.642 26.1089C303.316 24.1398 302.632 22.0049 302.632 19.7455C302.632 17.4862 302.984 15.6 303.709 14.0869C304.414 12.5738 305.098 11.4752 305.741 10.7497C306.383 10.045 307.129 9.67188 307.959 9.67188C309.347 9.67188 310.591 10.6875 311.731 12.7396C312.871 14.7916 313.431 16.4913 313.431 17.88C313.431 20.4503 312.539 22.4609 310.736 23.9118C308.933 25.3835 306.901 26.1089 304.642 26.1089Z" fill="#F55539"/>
<path d="M343.633 51.4171C344.524 51.4171 344.96 52.1633 344.96 53.6764C344.96 55.1896 344.586 56.7856 343.82 58.5267C343.053 60.2471 341.892 61.9261 340.337 63.5221C338.783 65.1181 336.793 66.4862 334.388 67.6262C331.963 68.7662 329.124 69.3259 325.849 69.3259C322.574 69.3259 319.692 68.3517 317.226 66.4032C314.759 64.4548 313.516 61.6359 313.516 57.9671C313.516 54.2983 314.096 50.9611 315.257 47.9763C316.417 44.9915 317.951 42.4213 319.838 40.2449C321.745 38.0685 323.9 36.3895 326.305 35.1666C328.73 33.9644 331.01 33.3633 333.186 33.3633C336.979 33.3633 338.886 34.8764 338.886 37.8819C338.886 39.6023 338.534 40.9911 337.809 42.0275C337.083 43.0639 336.358 43.582 335.632 43.582C334.637 43.582 333.787 43.2297 333.041 42.5457C332.295 41.8616 331.487 41.4885 330.595 41.4678C329.704 41.4471 328.854 41.8824 328.046 42.7529C327.237 43.6442 326.553 44.7843 326.014 46.1523C324.937 48.9091 324.377 52.1426 324.377 55.8528C324.418 57.6354 325.248 58.962 326.823 59.8533C327.901 60.4544 329.186 60.7446 330.678 60.786C332.15 60.8068 333.58 60.33 334.927 59.3351C336.275 58.3402 337.518 57.2831 338.658 56.1223C339.798 54.9616 340.793 53.8837 341.664 52.9095C342.534 51.9146 343.198 51.4171 343.633 51.4171Z" fill="#F55539"/>
<path d="M350.134 69.0982C345.201 69.0982 342.734 64.4759 342.734 55.2521C342.734 50.2153 343.356 45.6552 344.579 41.5718C346.507 35.2499 348.683 32.0993 351.088 32.0993C352.518 32.0993 353.658 33.0527 354.487 34.9804C355.171 36.4521 355.503 37.9237 355.44 39.354C355.44 41.3231 354.839 44.8053 353.658 49.78C352.518 54.1121 351.958 56.8067 351.958 57.8431C351.958 58.8795 352.207 59.5842 352.746 59.9988C353.264 60.3926 353.886 60.5999 354.591 60.5999C355.295 60.5999 356.207 60.1231 357.285 59.1904C358.363 58.2576 359.462 57.2212 360.539 56.1227C361.617 55.0034 362.633 53.9877 363.545 53.055C364.457 52.1222 365.079 51.6455 365.431 51.6455C366.115 51.6455 366.468 52.4953 366.468 54.1535C366.468 57.6151 364.726 60.973 361.244 64.2479C357.803 67.5229 354.093 69.1397 350.134 69.0982ZM353.181 26.1089C351.855 24.1398 351.191 22.0256 351.191 19.7455C351.191 17.4862 351.544 15.6 352.269 14.0869C352.974 12.5738 353.658 11.4752 354.3 10.7497C354.943 10.045 355.689 9.67188 356.518 9.67188C357.907 9.67188 359.151 10.6875 360.291 12.7396C361.431 14.7916 361.99 16.4913 361.99 17.88C361.99 20.4503 361.099 22.4609 359.296 23.9118C357.472 25.3835 355.44 26.1089 353.181 26.1089Z" fill="#F55539"/>
<path d="M392.69 62.5906C388.794 67.1714 384.109 69.4721 378.658 69.4721C373.206 69.4721 369.123 68.0834 366.408 65.2852C363.692 62.5076 362.366 59.0254 362.407 54.8798C362.366 49.0139 364.211 43.9563 367.962 39.7072C371.714 35.458 376.626 33.3438 382.679 33.3438C385.436 33.3438 387.654 33.6961 389.332 34.3801C392.234 35.5616 393.706 36.6809 393.706 37.7173C393.706 38.505 391.675 38.9195 387.591 38.9402C383.508 38.961 380.109 40.3704 377.373 43.1687C374.637 45.9462 373.269 49.4699 373.269 53.7191C373.269 55.937 373.911 57.8025 375.238 59.3156C376.543 60.8287 378.388 61.5749 380.793 61.5749C383.176 61.5749 385.166 61.0774 386.742 60.1032C383.239 57.7403 381.497 54.2995 381.497 49.8223C381.456 47.4593 382.306 45.3036 384.047 43.3552C385.788 41.4068 388.047 40.4119 390.783 40.3912C393.519 40.3704 395.489 41.1166 396.67 42.6505C397.852 44.1843 398.453 46.1327 398.453 48.5372C398.453 50.9416 397.893 53.4496 396.753 56.1235H397.188C399.365 56.082 401.23 55.3151 402.806 53.8227C403.407 53.2216 403.904 52.7034 404.319 52.2681C404.733 51.8329 405.168 51.6049 405.604 51.6049C406.288 51.6049 406.64 52.4132 406.64 54.0507C406.64 57.0563 405.749 59.3156 403.966 60.8287C402.184 62.3418 400.235 63.088 398.08 63.088C395.924 63.088 394.162 62.8807 392.69 62.5906ZM392.027 54.0093C392.856 52.2267 393.291 50.5063 393.291 48.8273C393.291 47.1484 392.753 46.3193 391.654 46.3193C391.219 46.3193 390.846 46.6509 390.535 47.2728C390.245 47.9153 390.099 48.5372 390.099 49.1175C390.099 51.0867 390.742 52.7242 392.027 54.0093Z" fill="#F55539"/>
<path d="M425.983 37.6531C425.983 34.3574 428.553 32.6992 433.673 32.6992C434.958 32.6992 435.766 33.1138 436.077 33.9636C436.388 34.8134 436.554 36.0778 436.554 37.819C436.554 40.2441 436.015 43.9958 434.917 49.0741C433.818 54.1524 433.321 57.5932 433.362 59.3551C433.362 60.2049 433.631 60.6194 434.17 60.6194C434.917 60.6194 435.829 60.1427 436.906 59.21C437.984 58.2772 439.083 57.2408 440.161 56.1423C441.239 55.0437 442.254 54.0073 443.166 53.0746C444.078 52.1418 444.7 51.6651 445.052 51.6651C445.736 51.6651 446.089 52.5149 446.089 54.1731C446.089 57.6347 444.389 60.9511 440.99 64.1639C435.269 67.5218 431.642 69.2007 430.108 69.2007C429.963 69.2007 429.838 69.18 429.735 69.1178C427.869 69.1178 426.543 68.496 425.776 67.273C425.009 66.0501 424.532 64.4955 424.325 62.6093C423.33 64.4333 421.982 66.0086 420.262 67.3145C418.542 68.6203 416.552 69.2836 414.334 69.2836C410.437 69.2836 407.432 68.5374 405.338 67.0658C403.245 65.5941 402.188 63.397 402.188 60.4743C402.188 59.1892 402.374 58.0077 402.747 56.9299C403.12 55.8521 403.721 54.5048 404.55 52.9295L406.706 34.7305C408.24 33.5491 410.437 32.948 413.298 32.948C415.557 32.948 416.842 34.4196 417.153 37.3837C417.402 39.8088 417.298 41.9645 416.821 43.8507C416.345 45.7577 415.723 48.1414 414.935 51.0225C414.147 53.9037 413.754 56.4532 413.754 58.671C413.754 60.4536 414.873 61.3449 417.091 61.3449C419.516 61.3449 421.609 59.2307 423.371 54.9815C424.76 51.7273 425.693 48.0999 426.19 44.0995C426.149 43.7056 426.107 43.2082 426.087 42.5863C426.066 41.9645 426.045 41.3634 426.004 40.7623C425.983 40.1612 425.962 39.5808 425.962 38.9797V37.6531H425.983Z" fill="#F55539"/>
<path d="M459.286 33.0318C462.581 33.011 465.048 33.6329 466.686 34.8765C468.323 36.1409 469.131 37.9442 469.131 40.2865C469.131 42.6287 468.427 44.6185 467.017 46.2768C465.608 47.935 463.887 49.0957 461.877 49.8005C463.307 51.2721 464.592 52.7853 465.753 54.3191C466.914 55.853 467.494 57.449 467.494 59.1279C467.494 62.4236 466.188 64.9939 463.576 66.7765C460.965 68.5798 457.317 69.4711 452.653 69.4711C447.989 69.4711 444.507 68.5383 442.185 66.6936C439.864 64.8488 438.703 62.7553 438.703 60.3923C438.703 58.0501 439.284 55.9151 440.444 53.9875C441.605 52.0598 442.849 51.1063 444.175 51.1063C444.963 51.1063 445.523 51.3965 445.875 51.9562C446.227 52.5158 446.87 54.174 447.803 56.8686C448.155 57.8636 448.715 58.7963 449.502 59.6876C451.326 61.7189 454.207 62.7138 458.166 62.7138C457.565 60.8483 456.633 59.2316 455.327 57.8636C454.021 56.5162 452.715 55.1897 451.451 53.9046C450.166 52.6194 449.026 51.2514 448.051 49.8005C447.056 48.3495 446.58 46.6291 446.58 44.66C446.58 41.1156 447.906 38.2137 450.58 35.9958C453.067 34.0474 455.969 33.0525 459.286 33.0318ZM458.996 46.7535C460.965 44.6393 461.96 42.9396 461.96 41.6545C461.96 41.0534 461.752 40.5352 461.338 40.0584C460.923 39.5817 460.322 39.3537 459.534 39.3537C458.747 39.3537 458.001 39.4573 457.275 39.6439C456.55 39.8512 455.99 39.9963 455.534 40.0792C455.513 41.9654 456.674 44.1833 458.996 46.7535Z" fill="#F55539"/>
<path d="M185.288 94.2612V100.438H195.092V103.63H185.288V111.403H181.516V91.0898H196.336V94.2612H185.288Z" fill="#06C167"/>
<path d="M206.551 110.347C204.893 109.456 203.587 108.191 202.633 106.595C201.68 104.999 201.203 103.217 201.203 101.248C201.203 99.2784 201.68 97.4958 202.633 95.8998C203.587 94.3038 204.893 93.0601 206.551 92.1481C208.209 91.2361 210.075 90.8008 212.147 90.8008C214.22 90.8008 216.086 91.2568 217.744 92.1481C219.402 93.0394 220.708 94.283 221.661 95.8791C222.615 97.4751 223.092 99.2577 223.092 101.248C223.092 103.237 222.615 105.041 221.661 106.616C220.708 108.191 219.402 109.435 217.744 110.347C216.086 111.238 214.22 111.694 212.147 111.694C210.075 111.694 208.209 111.238 206.551 110.347ZM215.795 107.466C216.873 106.865 217.723 106.015 218.345 104.916C218.967 103.818 219.278 102.595 219.278 101.248C219.278 99.9002 218.967 98.6773 218.345 97.5787C217.723 96.4802 216.873 95.6303 215.795 95.0292C214.718 94.4281 213.495 94.1172 212.147 94.1172C210.8 94.1172 209.577 94.4281 208.499 95.0292C207.421 95.6303 206.572 96.5009 205.95 97.5787C205.328 98.6566 205.017 99.9002 205.017 101.248C205.017 102.595 205.328 103.818 205.95 104.916C206.572 106.015 207.421 106.865 208.499 107.466C209.577 108.067 210.8 108.378 212.147 108.378C213.495 108.378 214.718 108.088 215.795 107.466Z" fill="#06C167"/>
<path d="M233.895 110.347C232.236 109.456 230.931 108.191 229.977 106.595C229.024 104.999 228.547 103.217 228.547 101.248C228.547 99.2784 229.024 97.4958 229.977 95.8998C230.931 94.3038 232.236 93.0601 233.895 92.1481C235.553 91.2361 237.418 90.8008 239.491 90.8008C241.564 90.8008 243.429 91.2568 245.088 92.1481C246.746 93.0394 248.052 94.283 249.005 95.8791C249.959 97.4751 250.435 99.2577 250.435 101.248C250.435 103.237 249.959 105.041 249.005 106.616C248.052 108.191 246.746 109.435 245.088 110.347C243.429 111.238 241.564 111.694 239.491 111.694C237.418 111.694 235.553 111.238 233.895 110.347ZM243.139 107.466C244.217 106.865 245.067 106.015 245.689 104.916C246.311 103.818 246.621 102.595 246.621 101.248C246.621 99.9002 246.311 98.6773 245.689 97.5787C245.067 96.4802 244.217 95.6303 243.139 95.0292C242.061 94.4281 240.838 94.1172 239.491 94.1172C238.144 94.1172 236.921 94.4281 235.843 95.0292C234.765 95.6303 233.915 96.5009 233.294 97.5787C232.672 98.6566 232.361 99.9002 232.361 101.248C232.361 102.595 232.672 103.818 233.294 104.916C233.915 106.015 234.765 106.865 235.843 107.466C236.921 108.067 238.144 108.378 239.491 108.378C240.838 108.378 242.061 108.088 243.139 107.466Z" fill="#06C167"/>
<path d="M257.336 91.0898H266.207C268.363 91.0898 270.291 91.5044 271.99 92.3542C273.669 93.2041 274.975 94.3856 275.908 95.9194C276.841 97.4533 277.297 99.2358 277.297 101.246C277.297 103.257 276.841 105.04 275.908 106.573C274.975 108.107 273.669 109.31 271.99 110.139C270.311 110.988 268.384 111.403 266.207 111.403H257.336V91.0898ZM266.042 108.211C267.534 108.211 268.84 107.921 269.98 107.361C271.12 106.801 271.99 105.972 272.592 104.915C273.193 103.858 273.504 102.635 273.504 101.246C273.504 99.8577 273.193 98.6347 272.592 97.5776C271.99 96.5205 271.12 95.7121 269.98 95.1317C268.84 94.5514 267.534 94.2819 266.042 94.2819H261.108V108.211H266.042Z" fill="#06C167"/>
<path d="M295.109 91.0898H303.981C306.137 91.0898 308.064 91.5044 309.764 92.3542C311.443 93.2041 312.749 94.3856 313.681 95.9194C314.614 97.4533 315.07 99.2358 315.07 101.246C315.07 103.257 314.614 105.04 313.681 106.573C312.749 108.107 311.443 109.31 309.764 110.139C308.085 110.988 306.157 111.403 303.981 111.403H295.109V91.0898ZM303.815 108.211C305.307 108.211 306.613 107.921 307.753 107.361C308.893 106.801 309.764 105.972 310.365 104.915C310.966 103.858 311.277 102.635 311.277 101.246C311.277 99.8577 310.966 98.6347 310.365 97.5776C309.764 96.5205 308.893 95.7121 307.753 95.1317C306.613 94.5514 305.307 94.2819 303.815 94.2819H298.882V108.211H303.815Z" fill="#06C167"/>
<path d="M337.219 108.253V111.424H321.984V91.1113H336.805V94.2827H325.757V99.5682H335.561V102.677H325.757V108.274H337.219V108.253Z" fill="#06C167"/>
<path d="M344.336 91.0898H348.108V108.211H358.721V111.403H344.336V91.0898Z" fill="#06C167"/>
<path d="M364.602 91.0898H368.374V111.403H364.602V91.0898Z" fill="#06C167"/>
<path d="M395.198 91.0898L386.347 111.403H382.637L373.766 91.0898H377.849L384.606 106.76L391.426 91.0898H395.198Z" fill="#06C167"/>
<path d="M415.485 108.253V111.424H400.25V91.1113H415.07V94.2827H404.022V99.5682H413.827V102.677H404.022V108.274H415.485V108.253Z" fill="#06C167"/>
<path d="M435.888 111.403L431.742 105.454C431.577 105.475 431.307 105.475 430.955 105.475H426.374V111.403H422.602V91.0898H430.955C432.717 91.0898 434.251 91.38 435.556 91.9604C436.862 92.5408 437.857 93.3699 438.562 94.4477C439.267 95.5256 439.598 96.8107 439.598 98.3031C439.598 99.8369 439.225 101.143 438.479 102.241C437.733 103.34 436.655 104.169 435.266 104.708L439.93 111.382H435.888V111.403ZM434.52 95.339C433.67 94.6343 432.427 94.3026 430.768 94.3026H426.353V102.407H430.768C432.406 102.407 433.67 102.055 434.52 101.35C435.37 100.645 435.805 99.6504 435.805 98.3445C435.805 97.018 435.37 96.023 434.52 95.339Z" fill="#06C167"/>
<path d="M455.182 104.231V111.403H451.41V104.293L443.43 91.0898H447.472L453.42 100.977L459.431 91.0898H463.142L455.182 104.231Z" fill="#06C167"/>
<path d="M75.3713 17.9625C74.3557 16.9468 73.8582 15.7239 73.5888 14.4388C73.34 13.1537 73.3815 11.7856 73.8375 10.4383C74.2935 9.11177 75.2055 7.80593 76.5114 7.01827C77.8172 6.23062 79.3925 6.16844 80.6569 6.70736C79.6827 7.7852 79.0194 8.5314 78.5841 9.33978C78.1696 10.1274 77.9001 10.8736 77.5892 11.7235C77.299 12.5733 77.0296 13.5268 76.6979 14.5424C76.3455 15.5788 75.9724 16.6774 75.3713 17.9625Z" fill="white"/>
<path d="M157.904 114.47H4.72592C2.11423 114.47 0 112.356 0 109.744V109.288C0 106.677 2.11423 104.562 4.72592 104.562H157.904C160.515 104.562 162.63 106.677 162.63 109.288V109.744C162.63 112.356 160.515 114.47 157.904 114.47Z" fill="#F55539"/>
</svg>
