<svg width="211" height="61" viewBox="0 0 211 61" fill="none" xmlns="http://www.w3.org/2000/svg">
<path d="M202.891 60.9531H7.79597C3.50584 60.9531 -0.0078125 57.5226 -0.0078125 53.334V7.61899C-0.0078125 3.43036 3.50584 -0.000166295 7.79597 -0.000166295H202.891C207.181 -0.000166295 210.694 3.43036 210.694 7.61899V53.334C210.694 57.5226 207.181 60.9531 202.891 60.9531Z" fill="#114359"/>
<path d="M202.891 1.2208C206.504 1.2208 209.444 4.09132 209.444 7.61899V53.334C209.444 56.8616 206.504 59.7322 202.891 59.7322H7.79597C4.18282 59.7322 1.24274 56.8616 1.24274 53.334V7.61899C1.24274 4.09132 4.18282 1.2208 7.79597 1.2208H202.891ZM202.891 -0.000166295H7.79597C3.50584 -0.000166295 -0.0078125 3.43036 -0.0078125 7.61899V53.334C-0.0078125 57.5226 3.50584 60.9531 7.79597 60.9531H202.891C207.181 60.9531 210.694 57.5226 210.694 53.334V7.61899C210.694 3.43036 207.181 -0.000166295 202.891 -0.000166295Z" fill="#A6A6A6"/>
<path d="M73.9972 15.6096C73.9972 16.882 73.6071 17.9011 72.8384 18.6611C71.9546 19.562 70.8035 20.0154 69.393 20.0154C68.0449 20.0154 66.8938 19.5544 65.9496 18.6458C65.0034 17.7239 64.5312 16.5925 64.5312 15.2382C64.5312 13.8838 65.0034 12.7524 65.9496 11.8381C66.8938 10.9219 68.0449 10.4609 69.393 10.4609C70.0641 10.4609 70.704 10.5962 71.3147 10.8476C71.9234 11.1009 72.4189 11.4438 72.7779 11.8667L71.9624 12.6705C71.3361 11.9486 70.4836 11.5924 69.393 11.5924C68.4097 11.5924 67.5572 11.9276 66.8334 12.6038C66.1174 13.2819 65.7584 14.16 65.7584 15.2382C65.7584 16.3163 66.1174 17.202 66.8334 17.8801C67.5572 18.5487 68.4097 18.8915 69.393 18.8915C70.4368 18.8915 71.3147 18.5487 72.0073 17.8725C72.4638 17.4248 72.7233 16.8077 72.7916 16.0191H69.393V14.9181H73.927C73.9816 15.1562 73.9972 15.3867 73.9972 15.6096Z" fill="white" stroke="white" stroke-width="0.16" stroke-miterlimit="10"/>
<path d="M81.1912 11.7918H76.9322V14.6871H80.7717V15.7881H76.9322V18.6834H81.1912V19.8053H75.7266V10.6699H81.1912V11.7918Z" fill="white" stroke="white" stroke-width="0.16" stroke-miterlimit="10"/>
<path d="M86.2711 19.8053H85.0654V11.7918H82.4531V10.6699H88.8854V11.7918H86.2711V19.8053Z" fill="white" stroke="white" stroke-width="0.16" stroke-miterlimit="10"/>
<path d="M93.5391 19.8053V10.6699H94.7428V19.8053H93.5391Z" fill="white" stroke="white" stroke-width="0.16" stroke-miterlimit="10"/>
<path d="M100.076 19.8072H98.8799V11.7938H96.2578V10.6719H102.698V11.7938H100.076V19.8072Z" fill="white" stroke="white" stroke-width="0.16" stroke-miterlimit="10"/>
<path d="M114.879 18.6306C113.957 19.5544 112.813 20.0154 111.45 20.0154C110.078 20.0154 108.935 19.5544 108.012 18.6306C107.091 17.7087 106.633 16.5772 106.633 15.2382C106.633 13.8991 107.091 12.7676 108.012 11.8457C108.935 10.9219 110.078 10.4609 111.45 10.4609C112.806 10.4609 113.949 10.9219 114.872 11.8533C115.8 12.7829 116.259 13.9067 116.259 15.2382C116.259 16.5772 115.8 17.7087 114.879 18.6306ZM108.904 17.8649C109.598 18.5487 110.443 18.8915 111.45 18.8915C112.449 18.8915 113.301 18.5487 113.988 17.8649C114.68 17.181 115.032 16.3029 115.032 15.2382C115.032 14.1734 114.68 13.2953 113.988 12.6114C113.301 11.9276 112.449 11.5848 111.45 11.5848C110.443 11.5848 109.598 11.9276 108.904 12.6114C108.211 13.2953 107.86 14.1734 107.86 15.2382C107.86 16.3029 108.211 17.181 108.904 17.8649Z" fill="white" stroke="white" stroke-width="0.16" stroke-miterlimit="10"/>
<path d="M117.945 19.8072V10.6719H119.409L123.958 17.7767H124.011L123.958 16.0205V10.6719H125.162V19.8072H123.905L119.141 12.3519H119.089L119.141 14.1157V19.8072H117.945Z" fill="white" stroke="white" stroke-width="0.16" stroke-miterlimit="10"/>
<path d="M106.336 33.1465C102.67 33.1465 99.675 35.8704 99.675 39.6285C99.675 43.3562 102.67 46.1086 106.336 46.1086C110.009 46.1086 113.004 43.3562 113.004 39.6285C113.004 35.8704 110.009 33.1465 106.336 33.1465ZM106.336 43.5562C104.324 43.5562 102.594 41.9352 102.594 39.6285C102.594 37.2913 104.324 35.6989 106.336 35.6989C108.347 35.6989 110.085 37.2913 110.085 39.6285C110.085 41.9352 108.347 43.5562 106.336 43.5562ZM91.803 33.1465C88.1293 33.1465 85.1424 35.8704 85.1424 39.6285C85.1424 43.3562 88.1293 46.1086 91.803 46.1086C95.4746 46.1086 98.4635 43.3562 98.4635 39.6285C98.4635 35.8704 95.4746 33.1465 91.803 33.1465ZM91.803 43.5562C89.7896 43.5562 88.0533 41.9352 88.0533 39.6285C88.0533 37.2913 89.7896 35.6989 91.803 35.6989C93.8144 35.6989 95.5449 37.2913 95.5449 39.6285C95.5449 41.9352 93.8144 43.5562 91.803 43.5562ZM74.5098 35.1332V37.8875H81.2464C81.0494 39.4266 80.5226 40.558 79.7149 41.3466C78.7316 42.299 77.2001 43.3562 74.5098 43.3562C70.364 43.3562 67.1177 40.0895 67.1177 36.0418C67.1177 31.9941 70.364 28.7274 74.5098 28.7274C76.7514 28.7274 78.3824 29.5826 79.5862 30.6912L81.5742 28.7502C79.8905 27.1807 77.6508 25.975 74.5098 25.975C68.8247 25.975 64.0469 30.4912 64.0469 36.0418C64.0469 41.5923 68.8247 46.1086 74.5098 46.1086C77.5825 46.1086 79.8905 45.1257 81.7049 43.2819C83.5641 41.4666 84.1436 38.9142 84.1436 36.8532C84.1436 36.2132 84.0889 35.6246 83.9914 35.1332H74.5098ZM145.224 37.2685C144.676 35.8189 142.984 33.1465 139.539 33.1465C136.125 33.1465 133.282 35.7732 133.282 39.6285C133.282 43.259 136.095 46.1086 139.866 46.1086C142.916 46.1086 144.676 44.2933 145.399 43.2362L143.136 41.7638C142.381 42.8419 141.353 43.5562 139.866 43.5562C138.39 43.5562 137.33 42.8952 136.651 41.5923L145.53 38.0056L145.224 37.2685ZM136.171 39.4266C136.095 36.9275 138.159 35.6475 139.638 35.6475C140.797 35.6475 141.78 36.2132 142.108 37.0228L136.171 39.4266ZM128.955 45.7143H131.873V26.6664H128.955V45.7143ZM124.175 34.5903H124.077C123.422 33.8322 122.171 33.1465 120.587 33.1465C117.263 33.1465 114.223 35.9961 114.223 39.6495C114.223 43.2819 117.263 46.1086 120.587 46.1086C122.171 46.1086 123.422 45.4172 124.077 44.6362H124.175V45.5657C124.175 48.0439 122.819 49.3753 120.632 49.3753C118.849 49.3753 117.743 48.1182 117.286 47.061L114.748 48.0953C115.48 49.8134 117.417 51.9277 120.632 51.9277C124.054 51.9277 126.941 49.962 126.941 45.1791V33.5408H124.175V34.5903ZM120.837 43.5562C118.826 43.5562 117.142 41.9123 117.142 39.6495C117.142 37.3656 118.826 35.6989 120.837 35.6989C122.819 35.6989 124.382 37.3656 124.382 39.6495C124.382 41.9123 122.819 43.5562 120.837 43.5562ZM158.888 26.6664H151.908V45.7143H154.818V38.4971H158.888C162.121 38.4971 165.291 36.2132 165.291 32.5808C165.291 28.9503 162.113 26.6664 158.888 26.6664ZM158.964 35.8475H154.818V29.316H158.964C161.138 29.316 162.378 31.0779 162.378 32.5808C162.378 34.0551 161.138 35.8475 158.964 35.8475ZM176.958 33.1103C174.855 33.1103 172.668 34.017 171.768 36.0265L174.351 37.0837C174.907 36.0265 175.93 35.6837 177.011 35.6837C178.521 35.6837 180.052 36.5694 180.075 38.1332V38.3332C179.549 38.0361 178.421 37.5961 177.034 37.5961C174.252 37.5961 171.417 39.0914 171.417 41.8819C171.417 44.4343 173.696 46.0781 176.257 46.0781C178.216 46.0781 179.297 45.2153 179.976 44.2114H180.075V45.6838H182.887V38.3771C182.887 34.9999 180.304 33.1103 176.958 33.1103ZM176.607 43.5486C175.655 43.5486 174.328 43.0876 174.328 41.9352C174.328 40.4609 175.982 39.8952 177.414 39.8952C178.696 39.8952 179.297 40.1714 180.075 40.5352C179.847 42.299 178.292 43.5486 176.607 43.5486ZM193.129 33.5275L189.783 41.7847H189.684L186.225 33.5275H183.086L188.283 45.0667L185.318 51.4877H188.359L196.368 33.5275H193.129ZM166.891 45.7143H169.81V26.6664H166.891V45.7143Z" fill="white"/>
<path d="M16.2785 11.488C15.82 11.9566 15.5547 12.6861 15.5547 13.6309V47.3304C15.5547 48.2752 15.82 49.0047 16.2785 49.4733L16.3916 49.5762L35.7333 30.6997V30.254L16.3916 11.3775L16.2785 11.488Z" fill="url(#paint0_linear_125_2478)"/>
<path d="M42.1744 36.9941L35.7344 30.6988V30.2531L42.1823 23.9578L42.3266 24.0397L49.9626 28.2816C52.1418 29.4855 52.1418 31.4664 49.9626 32.6779L42.3266 36.9122L42.1744 36.9941Z" fill="url(#paint1_linear_125_2478)"/>
<path d="M42.3283 36.914L35.7361 30.4777L16.2812 49.4742C17.0051 50.2171 18.1854 50.3066 19.5276 49.5637L42.3283 36.914Z" fill="url(#paint2_linear_125_2478)"/>
<path d="M42.3283 24.0403L19.5276 11.3906C18.1854 10.6553 17.0051 10.7448 16.2812 11.4877L35.7361 30.4766L42.3283 24.0403Z" fill="url(#paint3_linear_125_2478)"/>
<defs>
<linearGradient id="paint0_linear_125_2478" x1="34.016" y1="47.6814" x2="8.44977" y2="21.4956" gradientUnits="userSpaceOnUse">
<stop stop-color="#00A0FF"/>
<stop offset="0.0066" stop-color="#00A1FF"/>
<stop offset="0.2601" stop-color="#00BEFF"/>
<stop offset="0.5122" stop-color="#00D2FF"/>
<stop offset="0.7604" stop-color="#00DFFF"/>
<stop offset="1" stop-color="#00E3FF"/>
</linearGradient>
<linearGradient id="paint1_linear_125_2478" x1="52.8003" y1="30.4738" x2="15.0348" y2="30.4738" gradientUnits="userSpaceOnUse">
<stop stop-color="#FFE000"/>
<stop offset="0.4087" stop-color="#FFBD00"/>
<stop offset="0.7754" stop-color="#FFA500"/>
<stop offset="1" stop-color="#FF9C00"/>
</linearGradient>
<linearGradient id="paint2_linear_125_2478" x1="38.7437" y1="26.9788" x2="4.07376" y2="-8.53114" gradientUnits="userSpaceOnUse">
<stop stop-color="#FF3A44"/>
<stop offset="1" stop-color="#C31162"/>
</linearGradient>
<linearGradient id="paint3_linear_125_2478" x1="11.3841" y1="60.6847" x2="26.8657" y2="44.8281" gradientUnits="userSpaceOnUse">
<stop stop-color="#32A071"/>
<stop offset="0.0685" stop-color="#2DA771"/>
<stop offset="0.4762" stop-color="#15CF74"/>
<stop offset="0.8009" stop-color="#06E775"/>
<stop offset="1" stop-color="#00F076"/>
</linearGradient>
</defs>
</svg>
